# xmcd
#
# Track frame offsets: 
#        150
#        46591
#        73661
#        86442
#        98794
#        112711
#        127519
#        138170
#        149720
#        161928
#
# Disc length: 2390 seconds
#
# Revision: 0
# Processed by: cddbd v1.5.2PL0 Copyright (c) Steve Scherf et al.
# Submitted via: ExactAudioCopy v0.99pb4
#
DISCID=7c09540a
DTITLE=Various Artist - Nova Le Grand Mix [CD5]
DYEAR=2008
DGENRE=
TTITLE0=Funkadelic - Maggot Brain (Live)
TTITLE1=Jazz Liberatorz feat. Lizzy Fields - Speak The Language
TTITLE2=Bill Doggett - Honky Tonk Pt. 1
TTITLE3=Irma Thomas - Ruler Of My Heart
TTITLE4=Dario Moreno - Quand Elle Danse (Me Voy P'al pueblo)
TTITLE5=Boysie Grant with Eddie Brown and Reinolds' Calypso Clippers - S
TTITLE5=olas Market
TTITLE6=Climaco Sarmiento Y Su Orquesta - Cumbia Sabrosa
TTITLE7=JJ Cale - Crying
TTITLE8=Heavy - Easier
TTITLE9=Bembaya Jazz National - Armée Guinéenne
EXTD=
EXTT0=
EXTT1=
EXTT2=
EXTT3=
EXTT4=
EXTT5=
EXTT6=
EXTT7=
EXTT8=
EXTT9=
PLAYORDER=
